<svg width="35" height="35" viewBox="0 0 35 35" fill="none" xmlns="http://www.w3.org/2000/svg">
<g clip-path="url(#clip0_108_559)">
<path d="M33.3875 34.1283L30.7723 9.76339C30.7287 9.37111 30.38 9.066 29.9877 9.066H25.1496V7.58406C25.1496 3.39975 21.7499 0 17.5656 0C13.3813 0 9.98152 3.39975 9.98152 7.58406V9.066H5.01265C4.62037 9.066 4.27168 9.37111 4.22809 9.76339L1.6129 34.1283C1.56931 34.3462 1.65649 34.5641 1.78725 34.7385C1.91801 34.9128 2.13594 35 2.35387 35H32.6465C32.8645 35 33.0824 34.9128 33.2131 34.7385C33.3439 34.5641 33.4311 34.3462 33.3875 34.1283ZM24.3651 13.4682C24.7574 13.4682 25.0625 13.7733 25.0625 14.1656C25.0625 14.5579 24.7574 14.863 24.3651 14.863C23.9728 14.863 23.6677 14.5579 23.6677 14.1656C23.6677 13.7733 23.9728 13.4682 24.3651 13.4682ZM11.5506 7.58406C11.5506 4.27148 14.253 1.56912 17.5656 1.56912C20.8782 1.56912 23.5805 4.27148 23.5805 7.58406V9.066H11.5506V7.58406ZM10.7661 13.4682C11.1584 13.4682 11.4635 13.7733 11.4635 14.1656C11.4635 14.5579 11.1584 14.863 10.7661 14.863C10.3738 14.863 10.0687 14.5579 10.0687 14.1656C10.0687 13.7733 10.3738 13.4682 10.7661 13.4682ZM3.26919 33.3873L5.71004 10.5915H9.98152V12.0299C9.10979 12.335 8.49957 13.1631 8.49957 14.122C8.49957 15.3425 9.50207 16.345 10.7225 16.345C11.9429 16.345 12.9454 15.3425 12.9454 14.122C12.9454 13.1631 12.3352 12.335 11.4635 12.0299V10.5915H23.4933V12.0299C22.6216 12.335 22.0114 13.1631 22.0114 14.122C22.0114 15.3425 23.0139 16.345 24.2343 16.345C25.4547 16.345 26.4572 15.3425 26.4572 14.122C26.4572 13.1631 25.847 12.335 24.9753 12.0299V10.5915H29.4211L31.862 33.3873H3.26919Z" fill="white"/>
</g>
<defs>
<clipPath id="clip0_108_559">
<rect width="35" height="35" fill="white"/>
</clipPath>
</defs>
</svg>
