<svg width="54" height="53" viewBox="0 0 54 53" fill="none" xmlns="http://www.w3.org/2000/svg">
<path d="M48.9375 26.1641H40.5V18.6886C40.5 14.5655 43.527 11.2132 47.25 11.2132H48.0938C49.4965 11.2132 50.625 9.96338 50.625 8.40988V2.80329C50.625 1.2498 49.4965 0 48.0938 0H47.25C37.9266 0 30.375 8.36316 30.375 18.6886V46.7216C30.375 49.8169 32.6426 52.3282 35.4375 52.3282H48.9375C51.7324 52.3282 54 49.8169 54 46.7216V31.7707C54 28.6754 51.7324 26.1641 48.9375 26.1641ZM18.5625 26.1641H10.125V18.6886C10.125 14.5655 13.152 11.2132 16.875 11.2132H17.7188C19.1215 11.2132 20.25 9.96338 20.25 8.40988V2.80329C20.25 1.2498 19.1215 0 17.7188 0H16.875C7.55156 0 0 8.36316 0 18.6886V46.7216C0 49.8169 2.26758 52.3282 5.0625 52.3282H18.5625C21.3574 52.3282 23.625 49.8169 23.625 46.7216V31.7707C23.625 28.6754 21.3574 26.1641 18.5625 26.1641Z" fill="#9E2548" fill-opacity="0.3"/>
</svg>
