<svg width="35" height="35" viewBox="0 0 35 35" fill="none" xmlns="http://www.w3.org/2000/svg">
<path d="M17.2504 16.8596C19.5666 16.8596 21.572 16.0289 23.211 14.3899C24.8495 12.7511 25.6805 10.746 25.6805 8.42955C25.6805 6.11388 24.8498 4.1085 23.2107 2.46921C21.5717 0.830725 19.5663 0 17.2504 0C14.9339 0 12.9288 0.830725 11.2901 2.46948C9.6513 4.10823 8.82031 6.11361 8.82031 8.42955C8.82031 10.746 9.6513 12.7514 11.2901 14.3902C12.9293 16.0286 14.9347 16.8596 17.2504 16.8596ZM12.7406 3.91971C13.998 2.66227 15.4731 2.05104 17.2504 2.05104C19.0275 2.05104 20.5028 2.66227 21.7605 3.91971C23.0179 5.17741 23.6294 6.65274 23.6294 8.42955C23.6294 10.2069 23.0179 11.682 21.7605 12.9397C20.5028 14.1974 19.0275 14.8086 17.2504 14.8086C15.4736 14.8086 13.9985 14.1971 12.7406 12.9397C11.4829 11.6822 10.8714 10.2069 10.8714 8.42955C10.8714 6.65274 11.4829 5.17741 12.7406 3.91971Z" fill="white"/>
<path d="M32.0009 26.9131C31.9537 26.2311 31.8581 25.4872 31.7174 24.7016C31.5753 23.9101 31.3924 23.1619 31.1734 22.4781C30.947 21.7712 30.6396 21.0732 30.2591 20.4043C29.8647 19.71 29.4012 19.1055 28.881 18.608C28.337 18.0876 27.6711 17.6691 26.901 17.3639C26.1335 17.0603 25.283 16.9065 24.3733 16.9065C24.016 16.9065 23.6705 17.0531 23.0032 17.4876C22.5925 17.7554 22.1121 18.0652 21.5759 18.4078C21.1174 18.6999 20.4963 18.9736 19.7291 19.2214C18.9806 19.4636 18.2207 19.5864 17.4703 19.5864C16.7205 19.5864 15.9606 19.4636 15.2115 19.2214C14.4452 18.9739 13.8238 18.7001 13.3661 18.408C12.835 18.0686 12.3543 17.7589 11.9375 17.4873C11.2707 17.0528 10.9252 16.9062 10.5679 16.9062C9.65788 16.9062 8.80767 17.0603 8.04049 17.3642C7.27092 17.6689 6.60468 18.0873 6.06021 18.6083C5.54004 19.106 5.07648 19.7103 4.68235 20.4043C4.30237 21.0732 3.99475 21.771 3.76831 22.4783C3.54961 23.1622 3.3667 23.9101 3.22464 24.7016C3.08365 25.4861 2.98832 26.2303 2.94106 26.9139C2.89459 27.5823 2.87109 28.2779 2.87109 28.9807C2.87109 30.8077 3.45188 32.2868 4.59716 33.3776C5.7283 34.454 7.22472 34.9998 9.04505 34.9998H25.8977C27.7175 34.9998 29.214 34.454 30.3454 33.3776C31.4909 32.2876 32.0717 30.808 32.0717 28.9805C32.0714 28.2752 32.0477 27.5796 32.0009 26.9131ZM28.9312 31.8916C28.1838 32.603 27.1915 32.9488 25.8975 32.9488H9.04505C7.75077 32.9488 6.75849 32.603 6.01135 31.8919C5.27835 31.1941 4.92214 30.2416 4.92214 28.9807C4.92214 28.3249 4.94377 27.6774 4.98703 27.0557C5.02922 26.4458 5.11547 25.7759 5.24337 25.064C5.36968 24.3609 5.53043 23.7011 5.72162 23.1037C5.90507 22.5309 6.15527 21.9638 6.46556 21.4174C6.7617 20.8967 7.10242 20.45 7.4784 20.09C7.83008 19.7533 8.27334 19.4777 8.79565 19.2711C9.2787 19.0799 9.82157 18.9752 10.4109 18.9594C10.4827 18.9976 10.6106 19.0705 10.8179 19.2056C11.2395 19.4804 11.7255 19.7939 12.2627 20.137C12.8684 20.5231 13.6486 20.8719 14.5808 21.1728C15.5338 21.481 16.5058 21.6375 17.4706 21.6375C18.4354 21.6375 19.4076 21.481 20.3601 21.1731C21.2931 20.8716 22.0731 20.5231 22.6795 20.1365C23.2293 19.7851 23.7017 19.4807 24.1233 19.2056C24.3306 19.0708 24.4585 18.9976 24.5303 18.9594C25.1199 18.9752 25.6628 19.0799 26.1461 19.2711C26.6681 19.4777 27.1114 19.7536 27.4631 20.09C27.839 20.4497 28.1798 20.8965 28.4759 21.4177C28.7865 21.9638 29.0369 22.5312 29.2201 23.1034C29.4116 23.7016 29.5726 24.3611 29.6986 25.0637C29.8263 25.7769 29.9128 26.4472 29.955 27.056V27.0565C29.9985 27.6758 30.0204 28.323 30.0207 28.9807C30.0204 30.2419 29.6642 31.1941 28.9312 31.8916Z" fill="white"/>
</svg>
